<svg width="353" height="49" viewBox="0 0 353 49" fill="none" xmlns="http://www.w3.org/2000/svg">
<path d="M0 15V3.75H7.5V15H0ZM7.5 15H45V18.75H7.5V15ZM7.5 3.75V0H45V3.75H7.5ZM45 15V11.25H52.5V15H45Z" fill="#000000"/>
<path d="M67.5 7.5V3.75H105V7.5H67.5Z" fill="#000000"/>
<path d="M120 15V3.75H127.5V7.5H165V3.75H172.5V11.25H127.5V15H120ZM127.5 15H172.5V18.75H127.5V15ZM127.5 3.75V0H165V3.75H127.5Z" fill="#000000"/>
<path d="M37.5 41.25V48.75H22.5V41.25H37.5Z" fill="#000000"/>
<path d="M60 48.75V45H105V48.75H60ZM60 37.5V33.75H67.5V37.5H60ZM67.5 41.25V37.5H105V33.75H67.5V30H112.5V45H105V41.25H67.5Z" fill="#000000"/>
<path d="M120 48.75V30H127.5V33.75H135V37.5H127.5V48.75H120ZM135 33.75V30H165V33.75H135ZM165 33.75H172.5V37.5H165V33.75Z" fill="#000000"/>
<path d="M180 45V33.75H187.5V45H180ZM187.5 45H225V48.75H187.5V45ZM187.5 33.75V30H225V33.75H187.5ZM225 45V33.75H232.5V45H225Z" fill="#000000"/>
<path d="M240 45V30H247.5V45H240ZM247.5 45H277.5V48.75H247.5V45ZM277.5 45V41.25H285V30H292.5V48.75H285V45H277.5Z" fill="#000000"/>
<path d="M300 48.75V30H345V33.75H307.5V37.5H345V41.25H307.5V48.75H300ZM345 33.75H352.5V37.5H345V33.75Z" fill="#000000"/>
</svg>
